<svg xmlns="http://www.w3.org/2000/svg" viewBox="0 0 1024 365.89">
  <defs>
    <linearGradient id="g1" x1="342.07" y1="12.72" x2="97.05" y2="265.47" gradientUnits="userSpaceOnUse"><stop offset="0" stop-color="#ff31fa"/><stop offset=".1" stop-color="#f830f5"/><stop offset=".24" stop-color="#e72de9"/><stop offset=".4" stop-color="#ca2ad4"/><stop offset=".57" stop-color="#a324b7"/><stop offset=".76" stop-color="#701e92"/><stop offset=".95" stop-color="#321666"/><stop offset="1" stop-color="#23145b"/></linearGradient>
    <linearGradient id="g2" x1="414.07" y1="82.52" x2="169.05" y2="335.27" href="#g1"/>
    <linearGradient id="g3" x1="452.52" y1="119.79" x2="207.5" y2="372.55" href="#g1"/>
    <linearGradient id="g4" x1="498.65" y1="164.51" x2="253.63" y2="417.27" href="#g1"/>
    <linearGradient id="g5" x1="296.36" y1="372.83" x2="765.76" y2="113.62" href="#g1"/>
    <linearGradient id="g6" x1="327.51" y1="429.25" x2="796.92" y2="170.04" href="#g1"/>
    <linearGradient id="g7" x1="334.15" y1="441.26" x2="803.55" y2="182.05" href="#g1"/>
    <linearGradient id="g8" x1="343.76" y1="458.66" x2="813.16" y2="199.46" href="#g1"/>
    <linearGradient id="g9" x1="367.4" y1="501.48" x2="836.8" y2="242.27" href="#g1"/>
    <linearGradient id="g10" x1="382.68" y1="529.16" x2="852.09" y2="269.95" href="#g1"/>
    <linearGradient id="g11" x1="401.56" y1="563.34" x2="870.97" y2="304.14" href="#g1"/>
    <linearGradient id="g12" x1="325.42" y1="168.19" x2="415.38" y2="35.61" href="#g1"/>
    <linearGradient id="g13" x1="325.42" y1="168.19" x2="415.38" y2="35.61" href="#g1"/>
    <linearGradient id="g14" x1="321.59" y1="183.99" x2="406.88" y2="58.27" href="#g1"/>
    <linearGradient id="g15" x1="400.94" y1="-6.97" x2="525.03" y2="175" href="#g1"/>
    <linearGradient id="g16" x1="493.86" y1="168.35" x2="583.82" y2="35.76" href="#g1"/>
    <linearGradient id="g17" x1="610.4" y1="50.83" x2="722.84" y2="215.7" href="#g1"/>
    <linearGradient id="g18" x1="457.23" y1="-110.08" x2="-208.95" y2="774.18" href="#g1"/>
    <linearGradient id="g19" x1="491.48" y1="5.93" x2="574.77" y2="128.06" href="#g1"/>
    <linearGradient id="g20" x1="513.21" y1="45.85" x2="581.81" y2="146.45" href="#g1"/>
    <linearGradient id="g21" x1="581.71" y1="171.34" x2="616.71" y2="96.79" href="#g1"/>
    <linearGradient id="g22" x1="578.96" y1="176.1" x2="645.81" y2="58.25" href="#g1"/>
    <linearGradient id="g23" x1="688.76" y1="163.22" x2="696.13" y2="140.19" href="#g1"/>
  </defs>
  <style>
    .st0{fill:url(#g1)}.st1{fill:url(#g21)}.st2{fill:url(#g22)}.st3{fill:url(#g23)}.st4{fill:url(#g11)}.st5{fill:url(#g13)}.st6{fill:url(#g14)}.st7{fill:url(#g15)}.st8{fill:url(#g12)}.st9{fill:url(#g20)}.st10{fill:url(#g16)}.st11{fill:url(#g18)}.st12{fill:url(#g17)}.st13{fill:url(#g19)}.st14{fill:url(#g2)}.st15{fill:url(#g6)}.st16{fill:url(#g10)}.st17{fill:url(#g3)}.st18{fill:url(#g4)}.st19{fill:url(#g5)}.st20{fill:url(#g7)}.st21{fill:url(#g8)}.st22{fill:url(#g9)}
  </style>
  <g>
    <path class="st0" d="M46.52,310.41v-110.3h16.86l48.22,80.52h-8.82l47.43-80.52h16.86l.32,110.3h-19.7v-79.89h3.94l-40.02,67.44h-9.3l-40.97-67.44h4.73v79.89h-19.54Z"/>
    <path class="st14" d="M234.67,311.51c-9.35,0-17.52-1.86-24.5-5.59-6.99-3.73-12.4-8.82-16.23-15.28-3.84-6.46-5.75-13.89-5.75-22.3s1.86-15.84,5.59-22.3c3.73-6.46,8.88-11.55,15.44-15.28,6.56-3.73,14.05-5.59,22.45-5.59s15.49,1.81,21.9,5.44c6.41,3.62,11.45,8.69,15.13,15.21,3.68,6.52,5.52,14.24,5.52,23.16,0,.74-.03,1.65-.08,2.76-.05,1.1-.13,2.08-.24,2.92h-70.12v-13.08h59.72l-7.88,4.1c.1-4.73-.87-8.95-2.92-12.68-2.05-3.73-4.86-6.62-8.43-8.67-3.57-2.05-7.78-3.07-12.61-3.07s-8.96,1.02-12.68,3.07c-3.73,2.05-6.59,4.96-8.59,8.75-2,3.78-2.99,8.14-2.99,13.08v3.15c0,5.04,1.13,9.51,3.39,13.39,2.26,3.89,5.49,6.91,9.69,9.06,4.2,2.15,9.09,3.23,14.65,3.23,4.73,0,8.98-.79,12.76-2.36s7.14-3.89,10.08-6.93l10.72,12.29c-3.89,4.41-8.69,7.78-14.42,10.09-5.73,2.31-12.27,3.47-19.62,3.47Z"/>
    <path class="st17" d="M281.94,242.65v-15.76h56.1v15.76h-56.1ZM324.8,311.51c-9.25,0-16.39-2.39-21.43-7.17-5.04-4.78-7.56-11.79-7.56-21.04v-75.64h19.54v75.01c0,3.99,1.05,7.09,3.15,9.3,2.1,2.21,5.04,3.31,8.82,3.31,4.31,0,7.88-1.15,10.72-3.47l5.67,14.02c-2.42,1.89-5.31,3.31-8.67,4.25-3.36.95-6.78,1.42-10.24,1.42Z"/>
    <path class="st18" d="M385.31,311.51c-6.3,0-11.82-1.08-16.55-3.23-4.73-2.15-8.38-5.15-10.95-8.98-2.58-3.83-3.86-8.17-3.86-13s1.13-8.98,3.39-12.76c2.26-3.78,5.96-6.78,11.11-8.98,5.15-2.21,11.98-3.31,20.49-3.31h24.42v13.08h-23.01c-6.62,0-11.11,1.08-13.47,3.23-2.36,2.15-3.55,4.86-3.55,8.12,0,3.47,1.42,6.25,4.25,8.35,2.84,2.1,6.78,3.15,11.82,3.15s9.16-1.1,13-3.31c3.83-2.21,6.64-5.46,8.43-9.77l3.15,11.82c-1.89,4.94-5.25,8.77-10.08,11.5-4.83,2.73-11.03,4.1-18.59,4.1ZM411.78,310.41v-17.18l-.95-3.47v-29.78c0-5.78-1.76-10.27-5.28-13.47-3.52-3.2-8.85-4.81-15.99-4.81-4.62,0-9.19.74-13.71,2.21-4.52,1.47-8.41,3.52-11.66,6.15l-7.72-14.34c4.62-3.47,10.03-6.09,16.23-7.88,6.2-1.78,12.66-2.68,19.38-2.68,12.29,0,21.75,2.94,28.36,8.82,6.62,5.88,9.93,14.92,9.93,27.1v49.32h-18.59Z"/>
    <path class="st19" d="M509.01,311.19c-8.3,0-15.97-1.39-23.01-4.18-7.04-2.78-13.16-6.7-18.36-11.74-5.2-5.04-9.22-10.95-12.05-17.73-2.84-6.78-4.25-14.21-4.25-22.3s1.42-15.52,4.25-22.3c2.84-6.78,6.88-12.68,12.13-17.73,5.25-5.04,11.37-8.96,18.36-11.74,6.98-2.78,14.68-4.18,23.08-4.18s15.39,1.26,22.22,3.78c6.83,2.52,12.66,6.3,17.49,11.35l-5.04,5.36c-4.83-4.73-10.11-8.09-15.84-10.08-5.73-1.99-11.95-2.99-18.67-2.99-7.15,0-13.76,1.21-19.85,3.62-6.09,2.42-11.4,5.83-15.92,10.24-4.52,4.41-8.01,9.56-10.48,15.44-2.47,5.88-3.7,12.29-3.7,19.22s1.23,13.34,3.7,19.22c2.47,5.88,5.96,11.03,10.48,15.44,4.52,4.41,9.82,7.83,15.92,10.24,6.09,2.42,12.71,3.62,19.85,3.62,6.51,0,12.68-1,18.52-2.99,5.83-1.99,11.16-5.3,15.99-9.93l4.57,6.15c-4.94,4.73-10.85,8.27-17.73,10.64-6.88,2.36-14.1,3.55-21.67,3.55ZM540.68,296.22v-40.5h7.72v41.29l-7.72-.79Z"/>
    <path class="st15" d="M603.4,311.04c-6.09,0-11.37-.97-15.84-2.92-4.47-1.94-7.88-4.7-10.24-8.27-2.36-3.57-3.55-7.67-3.55-12.29,0-4.2.97-8.01,2.92-11.42,1.94-3.41,5.17-6.2,9.69-8.35,4.52-2.15,10.56-3.23,18.12-3.23h30.26v6.15h-30.1c-8.51,0-14.47,1.58-17.88,4.73-3.42,3.15-5.12,7.09-5.12,11.82,0,5.25,1.99,9.45,5.99,12.61,3.99,3.15,9.61,4.73,16.86,4.73s12.79-1.58,17.57-4.73c4.78-3.15,8.32-7.72,10.64-13.71l2.21,5.36c-2.21,5.99-5.96,10.74-11.27,14.26-5.31,3.52-12.05,5.28-20.25,5.28ZM633.02,310.41v-18.75l-.32-2.84v-30.89c0-7.67-2.08-13.5-6.22-17.49-4.15-3.99-10.22-5.99-18.2-5.99-5.67,0-10.95.97-15.84,2.92-4.88,1.95-9.06,4.44-12.53,7.49l-3.94-5.67c4.1-3.68,9.03-6.54,14.81-8.59,5.78-2.05,11.82-3.07,18.12-3.07,10.19,0,18.02,2.58,23.48,7.72,5.46,5.15,8.19,12.82,8.19,23.01v52.16h-7.56Z"/>
    <path class="st20" d="M673.04,310.41v-116.92h7.88v116.92h-7.88Z"/>
    <path class="st21" d="M714.17,310.41v-116.92h7.88v116.92h-7.88Z"/>
    <path class="st22" d="M788.7,311.04c-8.3,0-15.63-1.79-21.98-5.36-6.36-3.57-11.35-8.51-14.97-14.81-3.62-6.3-5.44-13.5-5.44-21.59s1.71-15.42,5.12-21.67c3.41-6.25,8.11-11.16,14.1-14.73,5.99-3.57,12.71-5.36,20.17-5.36s14.16,1.73,20.09,5.2c5.93,3.47,10.61,8.33,14.02,14.58,3.41,6.25,5.12,13.47,5.12,21.67,0,.32-.03.66-.08,1.02-.05.37-.08.76-.08,1.18h-72.64v-6.15h68.39l-3.15,2.99c.1-6.41-1.24-12.16-4.02-17.25-2.78-5.09-6.54-9.09-11.27-11.98-4.73-2.89-10.19-4.33-16.39-4.33s-11.53,1.45-16.31,4.33c-4.78,2.89-8.54,6.88-11.27,11.98-2.73,5.1-4.1,10.9-4.1,17.41v1.42c0,6.72,1.5,12.68,4.49,17.88,2.99,5.2,7.12,9.25,12.37,12.13,5.25,2.89,11.24,4.33,17.96,4.33,5.25,0,10.16-.95,14.73-2.84,4.57-1.89,8.43-4.78,11.58-8.67l4.57,5.2c-3.57,4.41-8.06,7.75-13.47,10.01-5.41,2.26-11.27,3.39-17.57,3.39Z"/>
    <path class="st16" d="M849.37,310.41v-82.26h7.56v22.53l-.79-2.52c2.31-6.62,6.2-11.71,11.66-15.28,5.46-3.57,12.29-5.36,20.48-5.36v7.72c-.31,0-.63-.02-.95-.08-.32-.05-.63-.08-.95-.08-9.14,0-16.28,2.86-21.43,8.59-5.15,5.73-7.72,13.68-7.72,23.87v42.86h-7.88Z"/>
    <path class="st4" d="M909.56,341.61c-3.78,0-7.33-.63-10.64-1.89-3.31-1.26-6.12-3.1-8.43-5.52l3.94-5.99c2.1,2.21,4.39,3.83,6.85,4.88,2.47,1.05,5.28,1.58,8.43,1.58,3.78,0,7.12-1.05,10.01-3.15,2.89-2.1,5.59-5.94,8.11-11.5l5.67-12.61,1.1-1.42,34.82-77.84h8.04l-42.23,93.44c-2.21,5.04-4.6,9.01-7.17,11.9-2.57,2.89-5.38,4.96-8.43,6.22-3.05,1.26-6.41,1.89-10.09,1.89ZM933.35,312.45l-38.13-84.3h8.35l34.67,77.37-4.89,6.93Z"/>
    <path class="st8" d="M347.6,157.42h-37.16L395.24,14.98h0c25.75,0,41.89,26.69,29.12,48.15l-45.9,77.1c-6.33,10.63-18.1,17.18-30.85,17.18Z"/>
    <path class="st5" d="M347.6,157.42h-37.16L395.24,14.98h0c25.75,0,41.89,26.69,29.12,48.15l-45.9,77.1c-6.33,10.63-18.1,17.18-30.85,17.18Z"/>
    <path class="st6" d="M377.32,140.23l45.9-77.1c10.23-17.19,1.9-37.73-15.06-45.22l-83.06,139.51h21.37c12.75,0,24.53-6.56,30.85-17.18Z"/>
    <path class="st7" d="M478.65,157.42h26.51c13.94,0,22.67-14.45,15.76-26.06l-59.63-100.15c-5.97-10.03-17.08-16.22-29.12-16.22h-38.32l84.8,142.43Z"/>
    <path class="st10" d="M525.9,157.42h-47.25L563.45,14.98h0c25.75,0,41.89,26.69,29.12,48.15l-50.91,85.51c-3.23,5.43-9.25,8.78-15.76,8.78Z"/>
    <path class="st12" d="M668.62,157.42h37.16l-75.14-126.22c-5.97-10.03-17.08-16.22-29.12-16.22h-38.32l74.57,125.25c6.33,10.63,18.1,17.18,30.85,17.18Z"/>
    <path class="st11" d="M276.46,157.42h-37.16L324.1,14.98h0c25.75,0,41.89,26.69,29.12,48.15l-45.9,77.1c-6.33,10.63-18.1,17.18-30.85,17.18Z"/>
    <g><path class="st13" d="M547.57,43.56l-7.36-12.36c-5.97-10.03-17.08-16.22-29.12-16.22h-38.32l45.91,77.11,28.89-48.53Z"/><path class="st9" d="M599.84,131.36l-23.38-39.26-28.89,48.53,10,16.8h26.51c13.94,0,22.67-14.45,15.76-26.06Z"/></g>
    <g><path class="st1" d="M603.35,80.52l-45.78,76.9h47.25c6.51,0,12.53-3.35,15.76-8.78l11.66-19.59-28.89-48.53Z"/><path class="st2" d="M661.13,80.52l10.35-17.39c12.77-21.46-3.37-48.15-29.12-48.15h0l-10.13,17.01,28.89,48.53Z"/></g>
    <path class="st3" d="M747.54,157.42h37.16l-75.14-126.22c-5.97-10.03-17.08-16.22-29.12-16.22h-38.32l74.57,125.25c6.33,10.63,18.1,17.18,30.85,17.18Z"/>
  </g>
</svg>
